<svg xmlns="http://www.w3.org/2000/svg" width="22.76" height="20" viewBox="0 0 22.76 20"><defs><style>.cls-1{fill:#fff;}</style></defs><title>Asset 1</title><g id="Layer_2" data-name="Layer 2"><g id="Layer_1-2" data-name="Layer 1"><g id="Layer_2-2" data-name="Layer 2"><polygon class="cls-1" points="6.33 6.51 3.88 8.97 10.64 15.74 22.76 3.62 20.3 1.16 10.64 10.82 6.33 6.51"/><path class="cls-1" d="M18.26,17.39a.88.88,0,0,1-.87.87H2.61a.88.88,0,0,1-.87-.87V2.61a.88.88,0,0,1,.87-.87h14.7L18.69.36A2.58,2.58,0,0,0,17.39,0H2.61A2.61,2.61,0,0,0,0,2.61V17.39A2.61,2.61,0,0,0,2.61,20H17.39A2.61,2.61,0,0,0,20,17.39V8.84l-1.74,1.74Z"/></g></g></g></svg>