<svg xmlns="http://www.w3.org/2000/svg" width="20" height="20" viewBox="0 0 20 20"><defs><style>.cls-1{fill:#fff;}</style></defs><title>Asset 1</title><g id="Layer_2" data-name="Layer 2"><g id="Layer_1-2" data-name="Layer 1"><path class="cls-1" d="M17.39,1.74a.88.88,0,0,1,.87.87V17.39a.88.88,0,0,1-.87.87H2.61a.88.88,0,0,1-.87-.87V2.61a.88.88,0,0,1,.87-.87H17.39m0-1.74H2.61A2.61,2.61,0,0,0,0,2.61V17.39A2.61,2.61,0,0,0,2.61,20H17.39A2.61,2.61,0,0,0,20,17.39V2.61A2.61,2.61,0,0,0,17.39,0Z"/></g></g></svg>