<?xml version="1.0" encoding="utf-8"?>
<!-- Generator: Adobe Illustrator 22.1.0, SVG Export Plug-In . SVG Version: 6.00 Build 0)  -->
<svg version="1.1" id="Layer_1" xmlns="http://www.w3.org/2000/svg" xmlns:xlink="http://www.w3.org/1999/xlink" x="0px" y="0px"
	 viewBox="0 0 245 152" style="enable-background:new 0 0 245 152;" xml:space="preserve">
<style type="text/css">
	.st0{fill:#E84D37;}
	.st1{fill:#343434;}
	.st2{fill:#FFFFFF;}
	.st3{fill:#323232;}
	.st4{opacity:0.3;fill:#ABABAB;enable-background:new    ;}
	.st5{fill:#ABABAB;}
	.st6{fill:#231F20;}
</style>
<g>
	<path class="st0" d="M104.6,4.5l1,9h10.5l1.2-9H104.6z"/>
	<circle class="st1" cx="105.7" cy="18.5" r="2"/>
	<circle class="st1" cx="114.7" cy="18.5" r="2"/>
	<path class="st1" d="M104.4,2.6l-0.2-2h-5.5v2h3.6l1.5,13h14l1.7-13C119.5,2.6,104.4,2.6,104.4,2.6z M116.1,13.5h-10.5l-1-9h12.7
		L116.1,13.5z"/>
</g>
<g>
	<path class="st2" d="M126.4,2.6l-0.2-2h-5.5v2h3.6l1.5,13h14l1.7-13C141.5,2.6,126.4,2.6,126.4,2.6z M138.1,13.5h-10.5l-1-9h12.7
		L138.1,13.5z"/>
	<circle class="st2" cx="127.7" cy="18.5" r="2"/>
	<circle class="st2" cx="136.7" cy="18.5" r="2"/>
</g>
<g>
	<path class="st1" d="M148.4,2.6l-0.2-2h-5.5v2h3.6l1.5,13h14l1.7-13H148.4z M160.1,13.5h-10.4l-1-9h12.7L160.1,13.5z"/>
	<circle class="st1" cx="149.7" cy="18.5" r="2"/>
	<circle class="st1" cx="158.7" cy="18.5" r="2"/>
</g>
<g id="Layer_2_1_">
	<g id="Layer_1-2">
		<path class="st2" d="M54.6,90.6c0.5,0,0.9,0.4,0.9,0.9v14.8c0,0.5-0.4,0.9-0.9,0.9H39.8c-0.5,0-0.9-0.4-0.9-0.9V91.5
			c0-0.5,0.4-0.9,0.9-0.9H54.6 M54.6,88.9H39.8c-1.4,0-2.6,1.2-2.6,2.6l0,0v14.8c0,1.4,1.2,2.6,2.6,2.6l0,0h14.8
			c1.4,0,2.6-1.2,2.6-2.6l0,0V91.5C57.2,90.1,56,88.9,54.6,88.9L54.6,88.9z"/>
	</g>
</g>
<g id="Layer_2_2_">
	<g id="Layer_1-2_1_">
		<g id="Layer_2-2">
			<polygon class="st2" points="71,95.5 68.6,98 75.3,104.7 87.5,92.6 85,90.2 75.3,99.8 			"/>
			<path class="st2" d="M83,106.4c0,0.5-0.4,0.9-0.9,0.9H67.3c-0.5,0-0.9-0.4-0.9-0.9V91.6c0-0.5,0.4-0.9,0.9-0.9H82l1.4-1.4
				c-0.4-0.2-0.8-0.4-1.3-0.4H67.3c-1.4,0-2.6,1.2-2.6,2.6v14.8c0,1.4,1.2,2.6,2.6,2.6l0,0h14.8c1.4,0,2.6-1.2,2.6-2.6l0,0v-8.6
				L83,99.4V106.4z"/>
		</g>
	</g>
</g>
<g>
	<path class="st3" d="M74.2,32.1c-13.5,0-24.5,11-24.5,24.5s11,24.5,24.5,24.5s24.5-11,24.5-24.5S87.7,32.1,74.2,32.1z M74.2,79.1
		c-12.4,0-22.5-10.1-22.5-22.5s10.1-22.5,22.5-22.5s22.5,10.1,22.5,22.5S86.6,79.1,74.2,79.1z"/>
	<path class="st3" d="M84.5,51.4c0.9-1.7,1.9-5,0.4-9.5c-0.2-0.5-0.7-0.8-1.3-0.6c-0.2,0.1-0.4,0.2-0.6,0.5c-1.3,2.3-4,5.9-6,6.1
		h-0.1c-0.9-0.2-1.9-0.3-2.8-0.3c-0.1,0-1.3,0-2.8,0.3c0,0,0,0-0.1,0c-2-0.2-4.8-3.8-6-6.1c0.2-0.5-0.1-1.1-0.6-1.3
		s-1.1,0.1-1.3,0.6c-0.1,0.3-0.1,0.6,0.1,0.8c-1.4,4.5-0.4,7.8,0.4,9.5c-1.7,0.2-4,0.8-4.8,2.2c-0.4,0.7-0.4,1.5,0,2.2
		c0.5,0.9,1.4,1.2,2.3,1.2c0.8,0,1.7-0.2,2.3-0.5c0,0.5,0,1.1,0.1,1.6c0.3,1.5,1.1,3.6,1.7,5.2c0.2,0.5,0.4,1,0.5,1.3
		c-0.2,0.6-0.7,1.8-0.8,2.5c-0.1,0.8,0.1,2.1,1.1,3.3c1.4,1.7,4,2.5,7.6,2.5s6.2-0.8,7.6-2.5c1-1.2,1.2-2.5,1.1-3.3
		c-0.1-0.7-0.5-1.9-0.8-2.5c0.1-0.3,0.3-0.8,0.5-1.3c0.6-1.6,1.5-3.7,1.8-5.2c0.1-0.5,0.1-1.1,0.1-1.6c0.7,0.2,1.5,0.5,2.3,0.5
		c0.9,0,1.8-0.3,2.3-1.2c0.4-0.7,0.4-1.5,0-2.2C88.5,52.2,86.3,51.7,84.5,51.4z M83.6,44.8c0.4,3.1-0.5,5.2-1,6.1
		c-0.2-0.3-0.5-0.6-0.8-0.9c-0.5-0.5-1.2-0.9-1.9-1.3C81.3,47.7,82.6,46.1,83.6,44.8z M64.8,44.8c0.9,1.3,2.2,2.9,3.7,4
		c-0.7,0.3-1.4,0.7-1.9,1.3c-0.3,0.3-0.5,0.6-0.8,0.9C65.3,50,64.4,47.9,64.8,44.8z M60.9,54.9c-0.1-0.2-0.1-0.2,0-0.2
		c0.2-0.4,1.4-1,3.6-1.2c-0.1,0.3-0.2,0.6-0.3,0.9C62.9,54.9,61.2,55.4,60.9,54.9z M82.5,57.8c-0.3,1.3-1.1,3.4-1.6,4.8
		c-0.4,1-0.6,1.6-0.7,1.9l-0.1,0.3l0.1,0.3c0.3,0.7,0.7,1.9,0.8,2.4c0,0,0.1,0.9-0.6,1.7S78,71,74.3,71s-5.4-1-6.1-1.8
		c-0.7-0.9-0.7-1.7-0.7-1.7c0.1-0.4,0.5-1.6,0.8-2.4l0.1-0.3l-0.1-0.3c-0.1-0.3-0.3-0.9-0.7-1.9c-0.6-1.5-1.4-3.5-1.6-4.8
		c-0.4-2.2,0.4-4.6,2.1-6.4c1.5-1.5,4.9-1.9,6.1-1.9s4.5,0.3,6.1,1.9C82.4,53.5,82.8,56.1,82.5,57.8z M87.5,54.9
		c-0.3,0.5-2,0.1-3.2-0.6c-0.1-0.3-0.2-0.6-0.3-0.9c2.2,0.2,3.4,0.8,3.6,1.2C87.6,54.7,87.6,54.7,87.5,54.9z"/>
</g>
<g>
	<path class="st3" d="M124.2,32.1c-13.5,0-24.5,11-24.5,24.5s11,24.5,24.5,24.5s24.5-11,24.5-24.5S137.7,32.1,124.2,32.1z
		 M124.2,79.1c-12.4,0-22.5-10.1-22.5-22.5s10.1-22.5,22.5-22.5s22.5,10.1,22.5,22.5S136.6,79.1,124.2,79.1z"/>
	<path class="st3" d="M134.5,58.9c-0.5-9.5-9.2-18.7-9.6-19.1l0,0l-0.1-0.1l-0.1-0.1c0,0,0,0-0.1,0h-0.1c-0.1,0-0.2,0-0.3,0h-0.1
		c-0.1,0-0.1,0-0.2,0h-0.1l0,0c0,0-0.1,0-0.1,0.1l-0.1,0.1l0,0c-0.4,0.4-9.1,9.6-9.6,19.1c0,0.1,0,0.1,0,0.2c0,0.4,0,0.7,0,1.1
		c0.4,10.3,10,12.8,10.1,12.8c0.2,0,0.3,0,0.5,0c0.1,0,9.7-2.6,10.1-12.8c0-0.4,0-0.7,0-1.1C134.5,59,134.5,58.9,134.5,58.9z
		 M116.5,55.3c2.2,2.1,5.4,3.5,6.7,4.1V64c-2.4-1.2-6.2-3.3-7.3-5.2C116,57.6,116.2,56.5,116.5,55.3z M118.5,50.3
		c1.5,1.7,3.6,2.6,4.7,3.1v3.9c-1.7-0.8-4.4-2.2-6-4C117.6,52.2,118,51.2,118.5,50.3z M131.2,53.2c-1.6,1.8-4.4,3.3-6,4v-3.9
		c1.1-0.4,3.2-1.4,4.7-3.1C130.4,51.2,130.8,52.2,131.2,53.2z M125.2,51.1v-8c1.3,1.7,2.6,3.4,3.7,5.2
		C127.9,49.7,126.3,50.6,125.2,51.1z M125.2,64v-4.6c1.3-0.6,4.5-2,6.7-4.1c0.3,1.1,0.5,2.3,0.6,3.4C131.4,60.6,127.6,62.8,125.2,64
		z M123.2,51.2c-1.1-0.5-2.7-1.4-3.6-2.8c1.1-1.8,2.3-3.6,3.6-5.2C123.2,43.1,123.2,51.2,123.2,51.2z M116.1,61.9
		c2.3,2,5.7,3.6,7.1,4.3v4.4C121.1,69.7,117,67.3,116.1,61.9z M125.2,70.6v-4.4c1.4-0.7,4.8-2.3,7.1-4.3
		C131.4,67.3,127.3,69.7,125.2,70.6z"/>
</g>
<g>
	<path class="st1" d="M83.7,15.4l7-5.4l-7-5.4v2.9h-6v4.9h6V15.4z"/>
	<path class="st1" d="M95.7,0.5h-13c-1.1,0-2,0.9-2,2v2h2v-2h13v15h-13v-2h-2v2c0,1.1,0.9,2,2,2h13c1.1,0,2-0.9,2-2v-15
		C97.7,1.4,96.8,0.5,95.7,0.5z"/>
</g>
<g>
	<path class="st2" d="M62.7,15.4l6.9-5.4l-6.9-5.4v2.9h-6v4.9h6V15.4z"/>
	<path class="st2" d="M74.7,0.5h-13c-1.1,0-2,0.9-2,2v2h2v-2h13v15h-13v-2h-2v2c0,1.1,0.9,2,2,2h13c1.1,0,2-0.9,2-2v-15
		C76.7,1.4,75.8,0.5,74.7,0.5z"/>
</g>
<g>
	<path class="st4" d="M147.7,107.9c-5.5,0-10-4.5-10-10v2c0,5.5,4.5,10,10,10s10-4.5,10-10v-2C157.7,103.4,153.2,107.9,147.7,107.9z
		"/>
	<circle class="st2" cx="147.7" cy="97.9" r="10"/>
	<circle class="st5" cx="147.7" cy="97.9" r="2"/>
</g>
<g>
	<path class="st4" d="M149.1,138.7c-6.5,0-11.8-5.3-11.8-11.8v2.4c0,6.5,5.3,11.8,11.8,11.8s11.8-5.3,11.8-11.8v-2.4
		C160.9,133.4,155.6,138.7,149.1,138.7z"/>
	<circle class="st2" cx="149.1" cy="126.9" r="11.8"/>
	<circle class="st5" cx="149.1" cy="126.9" r="2.4"/>
</g>
<path class="st2" d="M171.9,93.4c-1.3,0-2.6,0.6-3.3,1.7c-0.8-1-2-1.7-3.3-1.7c-2.3,0-4.2,1.8-4.2,4c0,3.2,7.5,9,7.5,9
	s7.5-5.8,7.5-9C176.1,95.2,174.2,93.4,171.9,93.4z"/>
<g>
	<circle class="st2" cx="211.1" cy="121.1" r="30.5"/>
	<g>
		<path class="st6" d="M200.6,108.9c-0.9,2.7-1.7,5.4-2.5,8.1c-0.5-2.9-0.9-5.8-1-8.7c0-0.4-1.9-0.1-1.9,0.5
			c0.1,4.2,0.8,8.4,1.7,12.4c-1.2,4.6-2.3,9.2-3.6,13.8c-0.1,0.4,1.8,0.1,1.9-0.3c0.9-3.3,1.7-6.5,2.6-9.8c0.8,3.2,1.6,6.4,2.3,9.7
			c0.1,0.5,2,0,1.9-0.5c-0.9-4.5-2.1-8.8-3.1-13.2c1.1-4.1,2.2-8.2,3.6-12.2C202.6,108.2,200.8,108.4,200.6,108.9z M215,109.4
			c0-1-1.9-0.8-2,0.1c0,0.1,0,0.2,0,0.2c0,0.1-0.1,0.1-0.1,0.2c-1,4.5-2.6,8.7-4.1,13.1c-0.6,1.9-1.1,3.9-1.7,5.9
			c-0.1-6.6-0.1-13.2-0.2-19.9c0-1-2-0.8-2,0.1c0,8.3,0,16.6,0.3,25c0,0.1,0,0.2,0,0.3l0.1,0.4c0.1,0.9,2,0.5,1.9-0.3l0,0
			c1.6-4.2,2.5-8.6,3.9-12.8c0.5-1.6,1-3.1,1.6-4.7c-0.1,6,0.1,12,0.2,18c0,1,1.6,0.8,1.9,0.1l0.1-0.1c0.1-0.2,0.1-0.4,0-0.6
			C214.8,126,214.6,117.7,215,109.4z M227.9,108.3c-3.2,0.4-6.3,0.2-9.5,0c-0.5,0-2.2,0.9-1.2,0.9c1.1,0.1,2.2,0.1,3.3,0.1
			c-0.1,0.1-0.2,0.2-0.2,0.3c0.3,8.4-1.1,17.2,0.2,25.6c0.1,0.4,2,0,1.9-0.5c-1.2-8.2,0.1-17-0.2-25.3c1.8,0,3.6-0.1,5.3-0.3
			C228.5,109,229.3,108.1,227.9,108.3z"/>
	</g>
</g>
<g>
	<path class="st3" d="M24.7,32.1c-13.5,0-24.5,11-24.5,24.5s11,24.5,24.5,24.5s24.5-11,24.5-24.5S38.2,32.1,24.7,32.1z M24.7,79.1
		C12.3,79.1,2.2,69,2.2,56.6s10.1-22.5,22.5-22.5s22.5,10.1,22.5,22.5S37.1,79.1,24.7,79.1z"/>
	<path class="st3" d="M24.7,39.7c-4.4,0-7.9,3.3-8.4,7.5h-0.1v16.9h17V47.2h-0.1C32.6,43,29.1,39.7,24.7,39.7z M31.2,62.1h-13v-9.3
		c0.3,0.3,0.7,0.6,1.5,0.6c1.3,0,2.1-0.7,2.1-1.6v-0.9c0-0.5,0.4-0.9,0.9-0.9s0.9,0.4,0.9,0.9l0,0l0,0v3.3c0,0,0,1.8,2.1,1.8
		s2.1-1.8,2.1-1.8V52l0,0l0,0c0-0.7,0.6-1.3,1.3-1.3s1.3,0.6,1.3,1.3v0.1c0,0,0,0.6,0.7,0.9L31.2,62.1L31.2,62.1z M23.2,72.2
		c0,0.8,0.7,1.5,1.5,1.5s1.5-0.7,1.5-1.5v-7.1h-3V72.2z"/>
</g>
<polyline class="st2" points="6.7,138 1.2,128 12.2,128 "/>
<polyline class="st6" points="6.7,108.9 1.2,98.9 12.2,98.9 "/>
<path class="st2" d="M17.2,15.6L12,10.4c0.8-1.1,1.2-2.4,1.2-3.8c0-3.6-2.9-6.5-6.5-6.5S0.2,3,0.2,6.6s2.9,6.5,6.5,6.5
	c1.4,0,2.7-0.4,3.8-1.3l5.2,5.2L17.2,15.6z M6.7,11.1c-2.5,0-4.5-2-4.5-4.5s2-4.5,4.5-4.5s4.5,2,4.5,4.5S9.2,11.1,6.7,11.1z"/>
<path class="st1" d="M42.7,16l-5.2-5.2c0.8-1.1,1.2-2.4,1.2-3.8c0-3.6-2.9-6.5-6.5-6.5S25.7,3.4,25.7,7s2.9,6.5,6.5,6.5
	c1.4,0,2.7-0.4,3.8-1.3l5.2,5.2L42.7,16z M32.2,11.5c-2.5,0-4.5-2-4.5-4.5s2-4.5,4.5-4.5s4.5,2,4.5,4.5S34.7,11.5,32.2,11.5z"/>
<g id="Layer_2_3_">
	<g id="Layer_1-2_2_">
		<path class="st2" d="M101.5,91.4c4.1,0,7.5,3.3,7.5,7.5s-3.3,7.5-7.5,7.5s-7.5-3.3-7.5-7.5l0,0C94,94.8,97.4,91.4,101.5,91.4
			 M101.5,87.9c-6.1,0-11,4.9-11,11s4.9,11,11,11s11-4.9,11-11S107.6,87.9,101.5,87.9z"/>
	</g>
</g>
<g id="Layer_2_4_">
	<g id="Layer_1-2_3_">
		<path class="st2" d="M124.3,91.4c4.1,0,7.5,3.3,7.5,7.5s-3.3,7.5-7.5,7.5c-4.2,0-7.5-3.3-7.5-7.5l0,0
			C116.8,94.8,120.2,91.4,124.3,91.4 M124.3,87.9c-6.1,0-11,4.9-11,11s4.9,11,11,11c6.1,0,11-4.9,11-11S130.4,87.9,124.3,87.9z"/>
		<circle class="st2" cx="124.3" cy="98.9" r="4"/>
	</g>
</g>
<g>
	<path class="st3" d="M174.2,32.1c-13.5,0-24.5,11-24.5,24.5s11,24.5,24.5,24.5s24.5-11,24.5-24.5S187.7,32.1,174.2,32.1z
		 M174.2,79.1c-12.4,0-22.5-10.1-22.5-22.5s10.1-22.5,22.5-22.5s22.5,10.1,22.5,22.5S186.6,79.1,174.2,79.1z"/>
	<path class="st3" d="M178.6,45.2c0-2.8-2.3-5-5-5s-5,2.3-5,5v14.6c-1.3,1.3-2,3.1-2,4.9c0,3.9,3.2,7.1,7.1,7.1
		c3.9,0,7.1-3.2,7.1-7.1c0-1.9-0.8-3.8-2.2-5.1L178.6,45.2L178.6,45.2z M178.8,64.8c-0.1,2.8-2.4,5.1-5.2,5s-5-2.3-5-5
		c0-1.6,0.8-3.1,2-4V45.3c0-1.7,1.4-3,3-3c1.7,0,3,1.4,3,3v15.4C178,61.6,178.8,63.1,178.8,64.8z"/>
	<path class="st3" d="M174.7,61.7V45.3c0-0.6-0.4-1-1-1s-1,0.4-1,1v16.4c-1.2,0.4-2,1.5-2,2.8c0,1.7,1.3,3,3,3s3-1.3,3-3
		C176.7,63.2,175.9,62.1,174.7,61.7z M180.7,44.1h6v2h-6V44.1z M180.7,48.1h6v2h-6V48.1z M180.7,52.1h6v2h-6V52.1z M180.7,56.1h6v2
		h-6V56.1z"/>
</g>
<rect x="147.7" y="87.9" class="st2" width="0" height="27.2"/>
</svg>
