<?xml version="1.0" encoding="utf-8"?>
<!-- Generator: Adobe Illustrator 22.1.0, SVG Export Plug-In . SVG Version: 6.00 Build 0)  -->
<svg version="1.1" id="Layer_1" xmlns="http://www.w3.org/2000/svg" xmlns:xlink="http://www.w3.org/1999/xlink" x="0px" y="0px"
	 viewBox="0 0 640 480" style="enable-background:new 0 0 640 480;" xml:space="preserve">
<style type="text/css">
	.st0{display:none;}
	.st1{display:inline;fill:#938D8D;}
	.st2{display:inline;}
	.st3{fill:#FFFFFF;}
	.st4{fill:#E84D37;}
	.st5{fill:#343434;}
	.st6{fill:#323232;}
	.st7{opacity:0.3;fill:#ABABAB;enable-background:new    ;}
	.st8{fill:#ABABAB;}
	.st9{fill:#231F20;}
</style>
<g class="st0">
	<rect x="0.5" y="0.5" class="st1" width="639" height="479"/>
	<path class="st2" d="M639,1v478H1V1H639 M640,0H0v480h640V0L640,0z"/>
</g>
<g>
	<path class="st3" d="M188.6,237.5c0.4,0,0.7-0.1,1-0.2c0.3-0.1,0.5-0.3,0.6-0.6s0.1-0.5,0.1-0.8c0-0.2-0.1-0.5-0.2-0.7
		s-0.3-0.4-0.6-0.5c-0.3-0.1-0.6-0.2-1-0.2c-0.6,0-1.1,0-1.7,0h-0.3v3h0.6C187.7,237.5,188.2,237.5,188.6,237.5z M190.1,240.1
		c-0.3-0.1-0.7-0.1-1.2-0.1c-0.5,0-1,0-1.6,0h-0.8v3.5h0.3c1,0,1.7,0,2.2,0c0.4,0,0.8-0.1,1.2-0.2c0.4-0.2,0.6-0.4,0.8-0.6
		c0.1-0.3,0.2-0.6,0.2-0.9c0-0.4-0.1-0.8-0.3-1C190.8,240.4,190.5,240.2,190.1,240.1z"/>
	<path class="st3" d="M188,223c-8.8,0-16,7.2-16,16c0,8.8,7.2,16,16,16c8.8,0,16-7.2,16-16C204,230.2,196.8,223,188,223z
		 M194.6,243.5c-0.3,0.5-0.7,1-1.1,1.3c-0.6,0.4-1.2,0.7-1.8,0.9c-0.7,0.2-1.5,0.3-2.5,0.3H183v-14h5.4c1.1,0,2,0,2.5,0.1
		c0.5,0.1,1.1,0.3,1.6,0.5c0.5,0.3,0.9,0.6,1.2,1.1s0.4,1,0.4,1.6c0,0.7-0.2,1.3-0.5,1.8c-0.4,0.5-0.9,0.9-1.5,1.2v0.1
		c0.9,0.2,1.6,0.6,2.2,1.1c0.5,0.6,0.8,1.3,0.8,2.3C195,242.4,194.9,243,194.6,243.5z"/>
</g>
<g>
	<path class="st4" d="M81.9,4.5l1,9h10.5l1.2-9H81.9z"/>
	<circle class="st5" cx="83" cy="18.4" r="2"/>
	<circle class="st5" cx="92" cy="18.4" r="2"/>
	<path class="st5" d="M81.7,2.5l-0.2-2H76v2h3.6l1.5,13h14l1.7-13C96.8,2.5,81.7,2.5,81.7,2.5z M93.4,13.4H82.9l-1-9h12.7L93.4,13.4
		z"/>
</g>
<g>
	<path class="st3" d="M102.7,2.5l-0.2-2H97v2h3.6l1.5,13h14l1.7-13C117.8,2.5,102.7,2.5,102.7,2.5z M114.4,13.4h-10.5l-1-9h12.7
		L114.4,13.4z"/>
	<circle class="st3" cx="104" cy="18.4" r="2"/>
	<circle class="st3" cx="113" cy="18.4" r="2"/>
</g>
<g>
	<path class="st5" d="M123.7,2.5l-0.2-2H118v2h3.6l1.5,13h14l1.7-13C138.8,2.5,123.7,2.5,123.7,2.5z M135.4,13.4h-10.4l-1-9h12.7
		L135.4,13.4z"/>
	<circle class="st5" cx="125" cy="18.4" r="2"/>
	<circle class="st5" cx="134" cy="18.4" r="2"/>
</g>
<g id="Layer_2_1_">
	<g id="Layer_1-2">
		<path class="st3" d="M152.4,231.7c0.5,0,0.9,0.4,0.9,0.9v14.8c0,0.5-0.4,0.9-0.9,0.9h-14.8c-0.5,0-0.9-0.4-0.9-0.9v-14.8
			c0-0.5,0.4-0.9,0.9-0.9H152.4 M152.4,230h-14.8c-1.4,0-2.6,1.2-2.6,2.6c0,0,0,0,0,0v14.8c0,1.4,1.2,2.6,2.6,2.6c0,0,0,0,0,0h14.8
			c1.4,0,2.6-1.2,2.6-2.6c0,0,0,0,0,0v-14.8C155,231.2,153.8,230,152.4,230C152.4,230,152.4,230,152.4,230z"/>
	</g>
</g>
<g id="Layer_2_2_">
	<g id="Layer_1-2_1_">
		<g id="Layer_2-2">
			<polygon class="st3" points="140.3,270.5 137.9,273 144.6,279.7 156.8,267.6 154.3,265.2 144.6,274.8 			"/>
			<path class="st3" d="M152.3,281.4c0,0.5-0.4,0.9-0.9,0.9h-14.8c-0.5,0-0.9-0.4-0.9-0.9v-14.8c0-0.5,0.4-0.9,0.9-0.9h14.7l1.4-1.4
				c-0.4-0.2-0.8-0.4-1.3-0.4h-14.8c-1.4,0-2.6,1.2-2.6,2.6v14.8c0,1.4,1.2,2.6,2.6,2.6c0,0,0,0,0,0h14.8c1.4,0,2.6-1.2,2.6-2.6
				c0,0,0,0,0,0v-8.6l-1.7,1.7V281.4z"/>
		</g>
	</g>
</g>
<g>
	<path class="st6" d="M83.5,187C70,187,59,198,59,211.5S70,236,83.5,236s24.5-11,24.5-24.5S97,187,83.5,187z M83.5,234
		C71.1,234,61,223.9,61,211.5c0-12.4,10.1-22.5,22.5-22.5c12.4,0,22.5,10.1,22.5,22.5C106,223.9,95.9,234,83.5,234z"/>
	<path class="st6" d="M93.8,206.3c0.9-1.7,1.9-5,0.4-9.5c-0.2-0.5-0.7-0.8-1.3-0.6c-0.2,0.1-0.4,0.2-0.6,0.5c-1.3,2.3-4,5.9-6,6.1
		c0,0-0.1,0-0.1,0c-0.9-0.2-1.9-0.3-2.8-0.3c-0.1,0-1.3,0-2.8,0.3c0,0,0,0-0.1,0c-2-0.2-4.8-3.8-6-6.1c0.2-0.5-0.1-1.1-0.6-1.3
		c-0.5-0.2-1.1,0.1-1.3,0.6c-0.1,0.3-0.1,0.6,0.1,0.8c-1.4,4.5-0.4,7.8,0.4,9.5c-1.7,0.2-4,0.8-4.8,2.2c-0.4,0.7-0.4,1.5,0,2.2
		c0.5,0.9,1.4,1.2,2.3,1.2c0.8,0,1.7-0.2,2.3-0.5c0,0.5,0,1.1,0.1,1.6c0.3,1.5,1.1,3.6,1.7,5.2c0.2,0.5,0.4,1,0.5,1.3
		c-0.2,0.6-0.7,1.8-0.8,2.5c-0.1,0.8,0.1,2.1,1.1,3.3c1.4,1.7,4,2.5,7.6,2.5c3.6,0,6.2-0.8,7.6-2.5c1-1.2,1.2-2.5,1.1-3.3
		c-0.1-0.7-0.5-1.9-0.8-2.5c0.1-0.3,0.3-0.8,0.5-1.3c0.6-1.6,1.5-3.7,1.8-5.2c0.1-0.5,0.1-1.1,0.1-1.6c0.7,0.2,1.5,0.5,2.3,0.5
		c0.9,0,1.8-0.3,2.3-1.2c0.4-0.7,0.4-1.5,0-2.2C97.8,207.1,95.6,206.6,93.8,206.3z M92.9,199.7c0.4,3.1-0.5,5.2-1,6.1
		c-0.2-0.3-0.5-0.6-0.8-0.9c-0.5-0.5-1.2-0.9-1.9-1.3C90.6,202.6,91.9,201,92.9,199.7z M74.1,199.7c0.9,1.3,2.2,2.9,3.7,4
		c-0.7,0.3-1.4,0.7-1.9,1.3c-0.3,0.3-0.5,0.6-0.8,0.9C74.6,204.9,73.7,202.8,74.1,199.7z M70.2,209.8c-0.1-0.2-0.1-0.2,0-0.2
		c0.2-0.4,1.4-1,3.6-1.2c-0.1,0.3-0.2,0.6-0.3,0.9C72.2,209.8,70.5,210.3,70.2,209.8z M91.8,212.7c-0.3,1.3-1.1,3.4-1.6,4.8
		c-0.4,1-0.6,1.6-0.7,1.9l-0.1,0.3l0.1,0.3c0.3,0.7,0.7,1.9,0.8,2.4c0,0,0.1,0.9-0.6,1.7c-0.7,0.8-2.4,1.8-6.1,1.8s-5.4-1-6.1-1.8
		c-0.7-0.9-0.7-1.7-0.7-1.7c0.1-0.4,0.5-1.6,0.8-2.4l0.1-0.3l-0.1-0.3c-0.1-0.3-0.3-0.9-0.7-1.9c-0.6-1.5-1.4-3.5-1.6-4.8
		c-0.4-2.2,0.4-4.6,2.1-6.4c1.5-1.5,4.9-1.9,6.1-1.9c1.2,0,4.5,0.3,6.1,1.9C91.7,208.4,92.1,211,91.8,212.7z M96.8,209.8
		c-0.3,0.5-2,0.1-3.2-0.6c-0.1-0.3-0.2-0.6-0.3-0.9c2.2,0.2,3.4,0.8,3.6,1.2C96.9,209.6,96.9,209.6,96.8,209.8z"/>
</g>
<g>
	<path class="st6" d="M92,115c-13.5,0-24.5,11-24.5,24.5S78.5,164,92,164s24.5-11,24.5-24.5S105.5,115,92,115z M92,162
		c-12.4,0-22.5-10.1-22.5-22.5c0-12.4,10.1-22.5,22.5-22.5c12.4,0,22.5,10.1,22.5,22.5C114.5,151.9,104.4,162,92,162z"/>
	<path class="st6" d="M102.3,141.8c-0.5-9.5-9.2-18.7-9.6-19.1c0,0,0,0,0,0c0,0-0.1-0.1-0.1-0.1c0,0-0.1-0.1-0.1-0.1c0,0,0,0-0.1,0
		c0,0-0.1,0-0.1,0c-0.1,0-0.2,0-0.3,0c0,0-0.1,0-0.1,0c-0.1,0-0.1,0-0.2,0c0,0-0.1,0-0.1,0c0,0,0,0,0,0c0,0-0.1,0-0.1,0.1
		c0,0-0.1,0.1-0.1,0.1c0,0,0,0,0,0c-0.4,0.4-9.1,9.6-9.6,19.1c0,0.1,0,0.1,0,0.2c0,0.4,0,0.7,0,1.1c0.4,10.3,10,12.8,10.1,12.8
		c0.2,0,0.3,0,0.5,0c0.1,0,9.7-2.6,10.1-12.8c0-0.4,0-0.7,0-1.1C102.3,141.9,102.3,141.8,102.3,141.8z M84.3,138.2
		c2.2,2.1,5.4,3.5,6.7,4.1v4.6c-2.4-1.2-6.2-3.3-7.3-5.2C83.8,140.5,84,139.4,84.3,138.2z M86.3,133.2c1.5,1.7,3.6,2.6,4.7,3.1v3.9
		c-1.7-0.8-4.4-2.2-6-4C85.4,135.1,85.8,134.1,86.3,133.2z M99,136.1c-1.6,1.8-4.4,3.3-6,4v-3.9c1.1-0.4,3.2-1.4,4.7-3.1
		C98.2,134.1,98.6,135.1,99,136.1z M93,134v-8c1.3,1.7,2.6,3.4,3.7,5.2C95.7,132.6,94.1,133.5,93,134z M93,146.9v-4.6
		c1.3-0.6,4.5-2,6.7-4.1c0.3,1.1,0.5,2.3,0.6,3.4C99.2,143.5,95.4,145.7,93,146.9z M91,134.1c-1.1-0.5-2.7-1.4-3.6-2.8
		c1.1-1.8,2.3-3.6,3.6-5.2C91,126,91,134.1,91,134.1z M83.9,144.8c2.3,2,5.7,3.6,7.1,4.3v4.4C88.9,152.6,84.8,150.2,83.9,144.8z
		 M93,153.5v-4.4c1.4-0.7,4.8-2.3,7.1-4.3C99.2,150.2,95.1,152.6,93,153.5z"/>
</g>
<g>
	<path class="st5" d="M62,15.3L69,9.9L62,4.5v2.9h-6v4.9h6V15.3z"/>
	<path class="st5" d="M74,0.4H61c-1.1,0-2,0.9-2,2v2h2v-2h13v15H61v-2h-2v2c0,1.1,0.9,2,2,2h13c1.1,0,2-0.9,2-2v-15
		C76,1.3,75.1,0.4,74,0.4z"/>
</g>
<g>
	<path class="st3" d="M42,15.3l6.9-5.4L42,4.5v2.9h-6v4.9h6V15.3z"/>
	<path class="st3" d="M54,0.4H41c-1.1,0-2,0.9-2,2v2h2v-2h13v15H41v-2h-2v2c0,1.1,0.9,2,2,2h13c1.1,0,2-0.9,2-2v-15
		C56,1.3,55.1,0.4,54,0.4z"/>
</g>
<path class="st3" d="M230,229c-8.8,0-16,7.2-16,16s7.2,16,16,16c8.8,0,16-7.2,16-16S238.8,229,230,229z M234.1,238.5h-3v3.4h3v3.4
	h-3v8.6h-3v-8.6h-3v-3.4h3v-3.4c0-1.9,1.4-3.4,3-3.4h3L234.1,238.5L234.1,238.5z"/>
<path class="st7" d="M197,293c-5.5,0-10-4.5-10-10v2c0,5.5,4.5,10,10,10c5.5,0,10-4.5,10-10v-2C207,288.5,202.5,293,197,293z"/>
<circle class="st3" cx="197" cy="283" r="10"/>
<circle class="st8" cx="197" cy="283" r="2"/>
<path class="st3" d="M201.8,318c-1.3,0-2.6,0.6-3.3,1.7c-0.8-1-2-1.7-3.3-1.7c-2.3,0-4.2,1.8-4.2,4c0,3.2,7.5,9,7.5,9s7.5-5.8,7.5-9
	C206,319.8,204.1,318,201.8,318z"/>
<circle class="st3" cx="290.5" cy="331.5" r="30.5"/>
<g>
	<path class="st9" d="M280,319.3c-0.9,2.7-1.7,5.4-2.5,8.1c-0.5-2.9-0.9-5.8-1-8.7c0-0.4-1.9-0.1-1.9,0.5c0.1,4.2,0.8,8.4,1.7,12.4
		c-1.2,4.6-2.3,9.2-3.6,13.8c-0.1,0.4,1.8,0.1,1.9-0.3c0.9-3.3,1.7-6.5,2.6-9.8c0.8,3.2,1.6,6.4,2.3,9.7c0.1,0.5,2,0,1.9-0.5
		c-0.9-4.5-2.1-8.8-3.1-13.2c1.1-4.1,2.2-8.2,3.6-12.2C282,318.6,280.2,318.8,280,319.3z M294.4,319.8c0-1-1.9-0.8-2,0.1
		c0,0.1,0,0.2,0,0.2c0,0.1-0.1,0.1-0.1,0.2c-1,4.5-2.6,8.7-4.1,13.1c-0.6,1.9-1.1,3.9-1.7,5.9c-0.1-6.6-0.1-13.2-0.2-19.9
		c0-1-2-0.8-2,0.1c0,8.3,0,16.6,0.3,25c0,0.1,0,0.2,0,0.3l0.1,0.4c0.1,0.9,2,0.5,1.9-0.3c0,0,0,0,0,0c1.6-4.2,2.5-8.6,3.9-12.8
		c0.5-1.6,1-3.1,1.6-4.7c-0.1,6,0.1,12,0.2,18c0,1,1.6,0.8,1.9,0.1l0.1-0.1c0.1-0.2,0.1-0.4,0-0.6
		C294.2,336.4,294,328.1,294.4,319.8z M307.3,318.7c-3.2,0.4-6.3,0.2-9.5,0c-0.5,0-2.2,0.9-1.2,0.9c1.1,0.1,2.2,0.1,3.3,0.1
		c-0.1,0.1-0.2,0.2-0.2,0.3c0.3,8.4-1.1,17.2,0.2,25.6c0.1,0.4,2,0,1.9-0.5c-1.2-8.2,0.1-17-0.2-25.3c1.8,0,3.6-0.1,5.3-0.3
		C307.9,319.4,308.7,318.5,307.3,318.7z"/>
</g>
<g>
	<path class="st6" d="M156.5,43C143,43,132,54,132,67.5S143,92,156.5,92S181,81,181,67.5S170,43,156.5,43z M156.5,90
		C144.1,90,134,79.9,134,67.5c0-12.4,10.1-22.5,22.5-22.5c12.4,0,22.5,10.1,22.5,22.5C179,79.9,168.9,90,156.5,90z"/>
	<path class="st6" d="M156.5,50.6c-4.4,0-7.9,3.3-8.4,7.5H148V75h17V58.1h-0.1C164.4,53.9,160.9,50.6,156.5,50.6z M163,73h-13v-9.3
		c0.3,0.3,0.7,0.6,1.5,0.6c1.3,0,2.1-0.7,2.1-1.6v-0.9c0-0.5,0.4-0.9,0.9-0.9s0.9,0.4,0.9,0.9c0,0,0,0,0,0c0,0,0,0,0,0v3.3
		c0,0,0,1.8,2.1,1.8c2.1,0,2.1-1.8,2.1-1.8v-2.2h0l0,0c0-0.7,0.6-1.3,1.3-1.3c0.7,0,1.3,0.6,1.3,1.3c0,0,0,0.1,0,0.1s0,0.6,0.7,0.9
		L163,73L163,73z M155,83.1c0,0.8,0.7,1.5,1.5,1.5s1.5-0.7,1.5-1.5V76h-3V83.1z"/>
</g>
<polyline class="st3" points="221.5,294 216,284 227,284 "/>
<polyline class="st9" points="237.5,294 232,284 243,284 "/>
<g>
	<path class="st3" d="M277.9,247c0,2.7-2.2,4.9-4.9,4.9c-2.7,0-4.9-2.2-4.9-4.9c0-0.4,0.1-0.8,0.1-1.1h-0.9v6.8h11.4v-6.8h-0.9
		C277.9,246.2,277.9,246.6,277.9,247z"/>
	<path class="st3" d="M273,249.7c1.5,0,2.7-1.2,2.7-2.7s-1.2-2.7-2.7-2.7s-2.7,1.2-2.7,2.7S271.5,249.7,273,249.7z M275.6,241.3h3v3
		h-3V241.3z"/>
	<path class="st3" d="M273,231c-8.8,0-16,7.2-16,16c0,8.8,7.2,16,16,16c8.8,0,16-7.2,16-16C289,238.2,281.8,231,273,231z M281,252.7
		c0,1.3-1,2.3-2.3,2.3h-11.4c-1.3,0-2.3-1-2.3-2.3v-11.4c0-1.3,1-2.3,2.3-2.3h11.4c1.3,0,2.3,1,2.3,2.3L281,252.7L281,252.7z"/>
</g>
<path class="st3" d="M17,15.9l-5.2-5.2C12.6,9.6,13,8.3,13,6.9c0-3.6-2.9-6.5-6.5-6.5S0,3.3,0,6.9s2.9,6.5,6.5,6.5
	c1.4,0,2.7-0.4,3.8-1.3l5.2,5.2L17,15.9z M6.5,11.4C4,11.4,2,9.4,2,6.9s2-4.5,4.5-4.5s4.5,2,4.5,4.5S9,11.4,6.5,11.4z"/>
<path class="st5" d="M35,15.9l-5.2-5.2C30.6,9.6,31,8.3,31,6.9c0-3.6-2.9-6.5-6.5-6.5S18,3.3,18,6.9s2.9,6.5,6.5,6.5
	c1.4,0,2.7-0.4,3.8-1.3l5.2,5.2L35,15.9z M24.5,11.4c-2.5,0-4.5-2-4.5-4.5s2-4.5,4.5-4.5s4.5,2,4.5,4.5S27,11.4,24.5,11.4z"/>
<g id="Layer_2_3_">
	<g id="Layer_1-2_2_">
		<path class="st3" d="M143,298.5c4.1,0,7.5,3.3,7.5,7.5s-3.3,7.5-7.5,7.5s-7.5-3.3-7.5-7.5l0,0C135.5,301.9,138.9,298.5,143,298.5
			 M143,295c-6.1,0-11,4.9-11,11s4.9,11,11,11s11-4.9,11-11S149.1,295,143,295z"/>
	</g>
</g>
<g id="Layer_2_4_">
	<g id="Layer_1-2_3_">
		<path class="st3" d="M143,327.5c4.1,0,7.5,3.3,7.5,7.5s-3.3,7.5-7.5,7.5s-7.5-3.3-7.5-7.5l0,0C135.5,330.9,138.9,327.5,143,327.5
			 M143,324c-6.1,0-11,4.9-11,11s4.9,11,11,11s11-4.9,11-11S149.1,324,143,324z"/>
		<circle class="st3" cx="143" cy="335" r="4"/>
	</g>
</g>
<g>
	<path class="st6" d="M148.5,106c-13.5,0-24.5,11-24.5,24.5s11,24.5,24.5,24.5s24.5-11,24.5-24.5S162,106,148.5,106z M148.5,153
		c-12.4,0-22.5-10.1-22.5-22.5c0-12.4,10.1-22.5,22.5-22.5c12.4,0,22.5,10.1,22.5,22.5C171,142.9,160.9,153,148.5,153z"/>
	<path class="st6" d="M152.9,119.1c0-2.8-2.3-5-5-5s-5,2.3-5,5v14.6c-1.3,1.3-2,3.1-2,4.9c0,3.9,3.2,7.1,7.1,7.1
		c3.9,0,7.1-3.2,7.1-7.1c0-1.9-0.8-3.8-2.2-5.1V119.1z M153.1,138.7c-0.1,2.8-2.4,5.1-5.2,5c-2.8-0.1-5-2.3-5-5c0-1.6,0.8-3.1,2-4
		v-15.5c0-1.7,1.4-3,3-3c1.7,0,3,1.4,3,3v15.4C152.3,135.5,153.1,137,153.1,138.7z"/>
	<path class="st6" d="M149,135.6v-16.4c0-0.6-0.4-1-1-1s-1,0.4-1,1v16.4c-1.2,0.4-2,1.5-2,2.8c0,1.7,1.3,3,3,3s3-1.3,3-3
		C151,137.1,150.2,136,149,135.6z M155,118h6v2h-6V118z M155,122h6v2h-6V122z M155,126h6v2h-6V126z M155,130h6v2h-6V130z"/>
</g>
<path class="st3" d="M312,233.5c-8.8,0-16,7.2-16,16c0,8.8,7.2,16,16,16c8.8,0,16-7.2,16-16C328,240.7,320.8,233.5,312,233.5z
	 M319.9,246.3c-0.3,6.5-3.5,10.8-11,10.7h-0.5c-0.4,0-4.5-0.4-5.3-1.8c2.5,0.2,4.2-0.4,5.1-1.1c-1-0.3-2.9-0.5-3.3-2.8
	c0.4,0.1,0.6,0.2,1.3,0.1c-1.3-0.8-2.8-1.5-2.7-3.6c0.3,0.3,1.2,0.5,1.5,0.5c-0.8-0.2-2.1-3.2-1-4.8c2,1.8,4.1,3.5,7.8,3.6
	c0.2-2.2,1.2-3.7,3.2-4.3c1.8-0.5,3.3,0.3,3.9,1.1c0.7-0.2,1.5-0.5,2.2-0.7c0,0.8-0.6,1.5-0.9,1.7c0.7,0.2,1.4-0.5,1.4-0.5
	C321.5,245.3,320.6,246.1,319.9,246.3z"/>
</svg>
